<mxfile host="app.diagrams.net" modified="2021-08-21T11:19:43.220Z" agent="5.0 (Windows NT 10.0; Win64; x64) AppleWebKit/537.36 (KHTML, like Gecko) Chrome/92.0.4515.159 Safari/537.36" etag="6s7xoVASX7wrOGet_72l" version="14.9.8" type="github">
  <diagram id="uMiXBc9OB12O8yXZAyR1" name="Page-1">
    <mxGraphModel dx="1673" dy="901" grid="0" gridSize="10" guides="1" tooltips="1" connect="1" arrows="1" fold="1" page="1" pageScale="1" pageWidth="1600" pageHeight="1600" background="#1A1A1A" math="0" shadow="0">
      <root>
        <mxCell id="0" />
        <mxCell id="1" parent="0" />
        <mxCell id="FFnlqfLC8yHRUuaNmc0S-21" value="" style="edgeStyle=orthogonalEdgeStyle;rounded=0;orthogonalLoop=1;jettySize=auto;entryX=0.5;entryY=1;entryDx=0;entryDy=0;fontColor=#FFFFFF;strokeColor=#FFFFFF;html=1;" edge="1" parent="1" source="FFnlqfLC8yHRUuaNmc0S-2" target="FFnlqfLC8yHRUuaNmc0S-4">
          <mxGeometry relative="1" as="geometry" />
        </mxCell>
        <mxCell id="FFnlqfLC8yHRUuaNmc0S-114" style="edgeStyle=orthogonalEdgeStyle;rounded=0;orthogonalLoop=1;jettySize=auto;html=1;entryX=1;entryY=0.5;entryDx=0;entryDy=0;fontSize=11;fontColor=#FFFFFF;strokeColor=#FFFFFF;exitX=0;exitY=0.5;exitDx=0;exitDy=0;" edge="1" parent="1" source="FFnlqfLC8yHRUuaNmc0S-2" target="FFnlqfLC8yHRUuaNmc0S-113">
          <mxGeometry relative="1" as="geometry" />
        </mxCell>
        <mxCell id="FFnlqfLC8yHRUuaNmc0S-2" value="&lt;font style=&quot;font-size: 16px&quot;&gt;Fullstack developer&lt;/font&gt;" style="whiteSpace=wrap;html=1;aspect=fixed;fontColor=#ffffff;fillColor=#4D4D4D;strokeColor=#999999;" vertex="1" parent="1">
          <mxGeometry x="750" y="750" width="101" height="101" as="geometry" />
        </mxCell>
        <mxCell id="FFnlqfLC8yHRUuaNmc0S-24" style="edgeStyle=orthogonalEdgeStyle;rounded=0;orthogonalLoop=1;jettySize=auto;html=1;entryX=1;entryY=0.5;entryDx=0;entryDy=0;fontSize=10;fontColor=#FFFFFF;strokeColor=#FFFFFF;" edge="1" parent="1" source="FFnlqfLC8yHRUuaNmc0S-4" target="FFnlqfLC8yHRUuaNmc0S-6">
          <mxGeometry relative="1" as="geometry" />
        </mxCell>
        <mxCell id="FFnlqfLC8yHRUuaNmc0S-25" style="edgeStyle=orthogonalEdgeStyle;rounded=0;orthogonalLoop=1;jettySize=auto;html=1;entryX=0;entryY=0.5;entryDx=0;entryDy=0;fontSize=10;fontColor=#FFFFFF;strokeColor=#FFFFFF;" edge="1" parent="1" source="FFnlqfLC8yHRUuaNmc0S-4" target="FFnlqfLC8yHRUuaNmc0S-5">
          <mxGeometry relative="1" as="geometry" />
        </mxCell>
        <mxCell id="FFnlqfLC8yHRUuaNmc0S-4" value="&lt;font style=&quot;font-size: 14px&quot;&gt;HTML&lt;br&gt;&lt;/font&gt;" style="whiteSpace=wrap;html=1;aspect=fixed;fontColor=#ffffff;fillColor=#4D4D4D;strokeColor=#999999;" vertex="1" parent="1">
          <mxGeometry x="755" y="493" width="90" height="90" as="geometry" />
        </mxCell>
        <mxCell id="FFnlqfLC8yHRUuaNmc0S-5" value="&lt;font style=&quot;font-size: 14px&quot;&gt;CSS&lt;br&gt;&lt;/font&gt;" style="whiteSpace=wrap;html=1;aspect=fixed;fontColor=#ffffff;fillColor=#4D4D4D;strokeColor=#999999;" vertex="1" parent="1">
          <mxGeometry x="1017" y="493" width="90" height="90" as="geometry" />
        </mxCell>
        <mxCell id="FFnlqfLC8yHRUuaNmc0S-79" style="edgeStyle=orthogonalEdgeStyle;rounded=0;orthogonalLoop=1;jettySize=auto;html=1;entryX=1;entryY=0.5;entryDx=0;entryDy=0;fontSize=11;fontColor=#FFFFFF;strokeColor=#FFFFFF;" edge="1" parent="1" source="FFnlqfLC8yHRUuaNmc0S-6" target="FFnlqfLC8yHRUuaNmc0S-74">
          <mxGeometry relative="1" as="geometry" />
        </mxCell>
        <mxCell id="FFnlqfLC8yHRUuaNmc0S-6" value="&lt;font style=&quot;font-size: 14px&quot;&gt;JavaScript&lt;br&gt;&lt;/font&gt;" style="whiteSpace=wrap;html=1;aspect=fixed;fontColor=#ffffff;fillColor=#4D4D4D;strokeColor=#999999;" vertex="1" parent="1">
          <mxGeometry x="493" y="493" width="90" height="90" as="geometry" />
        </mxCell>
        <mxCell id="FFnlqfLC8yHRUuaNmc0S-10" value="SASS/LESS" style="ellipse;whiteSpace=wrap;html=1;fontColor=#FFFFFF;strokeColor=#999999;fillColor=#4D4D4D;" vertex="1" parent="1">
          <mxGeometry x="1110" y="425" width="82" height="45" as="geometry" />
        </mxCell>
        <mxCell id="FFnlqfLC8yHRUuaNmc0S-11" value="PostCSS" style="ellipse;whiteSpace=wrap;html=1;fontColor=#FFFFFF;strokeColor=#999999;fillColor=#4D4D4D;" vertex="1" parent="1">
          <mxGeometry x="1140" y="515.5" width="82" height="45" as="geometry" />
        </mxCell>
        <mxCell id="FFnlqfLC8yHRUuaNmc0S-13" value="SEO" style="ellipse;whiteSpace=wrap;html=1;fontColor=#FFFFFF;strokeColor=#999999;fillColor=#4D4D4D;" vertex="1" parent="1">
          <mxGeometry x="647" y="464" width="82" height="45" as="geometry" />
        </mxCell>
        <mxCell id="FFnlqfLC8yHRUuaNmc0S-14" value="Accessibility" style="ellipse;whiteSpace=wrap;html=1;fontColor=#FFFFFF;strokeColor=#999999;fillColor=#4D4D4D;" vertex="1" parent="1">
          <mxGeometry x="868" y="464" width="82" height="45" as="geometry" />
        </mxCell>
        <mxCell id="FFnlqfLC8yHRUuaNmc0S-15" value="Templating" style="ellipse;whiteSpace=wrap;html=1;fontColor=#FFFFFF;strokeColor=#999999;fillColor=#4D4D4D;" vertex="1" parent="1">
          <mxGeometry x="806" y="419" width="82" height="45" as="geometry" />
        </mxCell>
        <mxCell id="FFnlqfLC8yHRUuaNmc0S-16" value="Front-end Frameworks" style="ellipse;whiteSpace=wrap;html=1;fontColor=#FFFFFF;strokeColor=#999999;fillColor=#4D4D4D;" vertex="1" parent="1">
          <mxGeometry x="490" y="347" width="96" height="65" as="geometry" />
        </mxCell>
        <mxCell id="FFnlqfLC8yHRUuaNmc0S-17" value="DOM" style="ellipse;whiteSpace=wrap;html=1;fontColor=#FFFFFF;strokeColor=#999999;fillColor=#4D4D4D;" vertex="1" parent="1">
          <mxGeometry x="403" y="589" width="82" height="45" as="geometry" />
        </mxCell>
        <mxCell id="FFnlqfLC8yHRUuaNmc0S-18" value="ES6+" style="ellipse;whiteSpace=wrap;html=1;fontColor=#FFFFFF;strokeColor=#999999;fillColor=#4D4D4D;" vertex="1" parent="1">
          <mxGeometry x="497" y="609" width="82" height="45" as="geometry" />
        </mxCell>
        <mxCell id="FFnlqfLC8yHRUuaNmc0S-19" value="Basics" style="ellipse;whiteSpace=wrap;html=1;fontColor=#FFFFFF;strokeColor=#999999;fillColor=#4D4D4D;" vertex="1" parent="1">
          <mxGeometry x="596" y="589" width="99" height="45" as="geometry" />
        </mxCell>
        <mxCell id="FFnlqfLC8yHRUuaNmc0S-31" value="" style="endArrow=none;html=1;fontSize=10;fontColor=#FFFFFF;strokeColor=#FFFFFF;entryX=0;entryY=1;entryDx=0;entryDy=0;exitX=1;exitY=0.25;exitDx=0;exitDy=0;" edge="1" parent="1" source="FFnlqfLC8yHRUuaNmc0S-4" target="FFnlqfLC8yHRUuaNmc0S-14">
          <mxGeometry width="50" height="50" relative="1" as="geometry">
            <mxPoint x="833" y="690" as="sourcePoint" />
            <mxPoint x="883" y="640" as="targetPoint" />
          </mxGeometry>
        </mxCell>
        <mxCell id="FFnlqfLC8yHRUuaNmc0S-32" value="" style="endArrow=none;html=1;fontSize=10;fontColor=#FFFFFF;strokeColor=#FFFFFF;entryX=0.5;entryY=1;entryDx=0;entryDy=0;exitX=0.75;exitY=0;exitDx=0;exitDy=0;" edge="1" parent="1" source="FFnlqfLC8yHRUuaNmc0S-4" target="FFnlqfLC8yHRUuaNmc0S-15">
          <mxGeometry width="50" height="50" relative="1" as="geometry">
            <mxPoint x="833" y="690" as="sourcePoint" />
            <mxPoint x="883" y="640" as="targetPoint" />
          </mxGeometry>
        </mxCell>
        <mxCell id="FFnlqfLC8yHRUuaNmc0S-34" value="" style="endArrow=none;html=1;fontSize=10;fontColor=#FFFFFF;strokeColor=#FFFFFF;entryX=1;entryY=1;entryDx=0;entryDy=0;exitX=0;exitY=0.25;exitDx=0;exitDy=0;" edge="1" parent="1" source="FFnlqfLC8yHRUuaNmc0S-4" target="FFnlqfLC8yHRUuaNmc0S-13">
          <mxGeometry width="50" height="50" relative="1" as="geometry">
            <mxPoint x="833" y="690" as="sourcePoint" />
            <mxPoint x="883" y="640" as="targetPoint" />
          </mxGeometry>
        </mxCell>
        <mxCell id="FFnlqfLC8yHRUuaNmc0S-35" value="" style="endArrow=none;html=1;fontSize=10;fontColor=#FFFFFF;strokeColor=#FFFFFF;entryX=0;entryY=1;entryDx=0;entryDy=0;exitX=1;exitY=0;exitDx=0;exitDy=0;" edge="1" parent="1" source="FFnlqfLC8yHRUuaNmc0S-5" target="FFnlqfLC8yHRUuaNmc0S-10">
          <mxGeometry width="50" height="50" relative="1" as="geometry">
            <mxPoint x="833" y="607" as="sourcePoint" />
            <mxPoint x="883" y="557" as="targetPoint" />
          </mxGeometry>
        </mxCell>
        <mxCell id="FFnlqfLC8yHRUuaNmc0S-36" value="" style="endArrow=none;html=1;fontSize=10;fontColor=#FFFFFF;strokeColor=#FFFFFF;entryX=1;entryY=1;entryDx=0;entryDy=0;exitX=0;exitY=0;exitDx=0;exitDy=0;" edge="1" parent="1" source="FFnlqfLC8yHRUuaNmc0S-91" target="FFnlqfLC8yHRUuaNmc0S-5">
          <mxGeometry width="50" height="50" relative="1" as="geometry">
            <mxPoint x="1129.272678073176" y="608.4464965703044" as="sourcePoint" />
            <mxPoint x="883" y="557" as="targetPoint" />
          </mxGeometry>
        </mxCell>
        <mxCell id="FFnlqfLC8yHRUuaNmc0S-37" value="" style="endArrow=none;html=1;fontSize=10;fontColor=#FFFFFF;strokeColor=#FFFFFF;entryX=0;entryY=0.5;entryDx=0;entryDy=0;exitX=1;exitY=0.5;exitDx=0;exitDy=0;" edge="1" parent="1" source="FFnlqfLC8yHRUuaNmc0S-5" target="FFnlqfLC8yHRUuaNmc0S-11">
          <mxGeometry width="50" height="50" relative="1" as="geometry">
            <mxPoint x="833" y="607" as="sourcePoint" />
            <mxPoint x="883" y="557" as="targetPoint" />
          </mxGeometry>
        </mxCell>
        <mxCell id="FFnlqfLC8yHRUuaNmc0S-38" value="" style="endArrow=none;html=1;fontSize=10;fontColor=#FFFFFF;strokeColor=#FFFFFF;exitX=0.5;exitY=0;exitDx=0;exitDy=0;entryX=0.5;entryY=1;entryDx=0;entryDy=0;" edge="1" parent="1" source="FFnlqfLC8yHRUuaNmc0S-6" target="FFnlqfLC8yHRUuaNmc0S-16">
          <mxGeometry width="50" height="50" relative="1" as="geometry">
            <mxPoint x="833" y="607" as="sourcePoint" />
            <mxPoint x="883" y="557" as="targetPoint" />
          </mxGeometry>
        </mxCell>
        <mxCell id="FFnlqfLC8yHRUuaNmc0S-39" value="" style="endArrow=none;html=1;fontSize=10;fontColor=#FFFFFF;strokeColor=#FFFFFF;exitX=1;exitY=0;exitDx=0;exitDy=0;entryX=0;entryY=1;entryDx=0;entryDy=0;" edge="1" parent="1" source="FFnlqfLC8yHRUuaNmc0S-17" target="FFnlqfLC8yHRUuaNmc0S-6">
          <mxGeometry width="50" height="50" relative="1" as="geometry">
            <mxPoint x="833" y="607" as="sourcePoint" />
            <mxPoint x="883" y="557" as="targetPoint" />
          </mxGeometry>
        </mxCell>
        <mxCell id="FFnlqfLC8yHRUuaNmc0S-40" value="" style="endArrow=none;html=1;fontSize=10;fontColor=#FFFFFF;strokeColor=#FFFFFF;exitX=0.5;exitY=0;exitDx=0;exitDy=0;entryX=0.5;entryY=1;entryDx=0;entryDy=0;" edge="1" parent="1" source="FFnlqfLC8yHRUuaNmc0S-18" target="FFnlqfLC8yHRUuaNmc0S-6">
          <mxGeometry width="50" height="50" relative="1" as="geometry">
            <mxPoint x="833" y="607" as="sourcePoint" />
            <mxPoint x="883" y="557" as="targetPoint" />
          </mxGeometry>
        </mxCell>
        <mxCell id="FFnlqfLC8yHRUuaNmc0S-41" value="" style="endArrow=none;html=1;fontSize=10;fontColor=#FFFFFF;strokeColor=#FFFFFF;exitX=0;exitY=0;exitDx=0;exitDy=0;entryX=1;entryY=1;entryDx=0;entryDy=0;" edge="1" parent="1" source="FFnlqfLC8yHRUuaNmc0S-19" target="FFnlqfLC8yHRUuaNmc0S-6">
          <mxGeometry width="50" height="50" relative="1" as="geometry">
            <mxPoint x="833" y="607" as="sourcePoint" />
            <mxPoint x="883" y="557" as="targetPoint" />
          </mxGeometry>
        </mxCell>
        <mxCell id="FFnlqfLC8yHRUuaNmc0S-43" value="Angular" style="ellipse;whiteSpace=wrap;html=1;aspect=fixed;labelBackgroundColor=none;fontSize=11;fontColor=#FFFFFF;strokeColor=#999999;fillColor=#4D4D4D;" vertex="1" parent="1">
          <mxGeometry x="514" y="272" width="48" height="48" as="geometry" />
        </mxCell>
        <mxCell id="FFnlqfLC8yHRUuaNmc0S-44" value="Vue.js" style="ellipse;whiteSpace=wrap;html=1;aspect=fixed;labelBackgroundColor=none;fontSize=11;fontColor=#FFFFFF;strokeColor=#999999;fillColor=#4D4D4D;" vertex="1" parent="1">
          <mxGeometry x="586" y="293" width="48" height="48" as="geometry" />
        </mxCell>
        <mxCell id="FFnlqfLC8yHRUuaNmc0S-45" value="React" style="ellipse;whiteSpace=wrap;html=1;aspect=fixed;labelBackgroundColor=none;fontSize=11;fontColor=#FFFFFF;strokeColor=#999999;fillColor=#4D4D4D;" vertex="1" parent="1">
          <mxGeometry x="448" y="293" width="48" height="48" as="geometry" />
        </mxCell>
        <mxCell id="FFnlqfLC8yHRUuaNmc0S-46" value="Svelte" style="ellipse;whiteSpace=wrap;html=1;aspect=fixed;labelBackgroundColor=none;fontSize=11;fontColor=#FFFFFF;strokeColor=#999999;fillColor=#4D4D4D;" vertex="1" parent="1">
          <mxGeometry x="414" y="355.5" width="48" height="48" as="geometry" />
        </mxCell>
        <mxCell id="FFnlqfLC8yHRUuaNmc0S-48" value="" style="endArrow=none;html=1;fontSize=11;fontColor=#FFFFFF;strokeColor=#FFFFFF;entryX=0;entryY=1;entryDx=0;entryDy=0;exitX=1;exitY=0;exitDx=0;exitDy=0;" edge="1" parent="1" source="FFnlqfLC8yHRUuaNmc0S-16" target="FFnlqfLC8yHRUuaNmc0S-44">
          <mxGeometry width="50" height="50" relative="1" as="geometry">
            <mxPoint x="826" y="732" as="sourcePoint" />
            <mxPoint x="876" y="682" as="targetPoint" />
          </mxGeometry>
        </mxCell>
        <mxCell id="FFnlqfLC8yHRUuaNmc0S-49" value="" style="endArrow=none;html=1;fontSize=11;fontColor=#FFFFFF;strokeColor=#FFFFFF;entryX=0.5;entryY=1;entryDx=0;entryDy=0;exitX=0.5;exitY=0;exitDx=0;exitDy=0;" edge="1" parent="1" source="FFnlqfLC8yHRUuaNmc0S-16" target="FFnlqfLC8yHRUuaNmc0S-43">
          <mxGeometry width="50" height="50" relative="1" as="geometry">
            <mxPoint x="460.99338271800707" y="387.5544666653452" as="sourcePoint" />
            <mxPoint x="486.02943725153864" y="373.9705627484616" as="targetPoint" />
          </mxGeometry>
        </mxCell>
        <mxCell id="FFnlqfLC8yHRUuaNmc0S-50" value="" style="endArrow=none;html=1;fontSize=11;fontColor=#FFFFFF;strokeColor=#FFFFFF;entryX=1;entryY=1;entryDx=0;entryDy=0;exitX=0;exitY=0;exitDx=0;exitDy=0;" edge="1" parent="1" source="FFnlqfLC8yHRUuaNmc0S-16" target="FFnlqfLC8yHRUuaNmc0S-45">
          <mxGeometry width="50" height="50" relative="1" as="geometry">
            <mxPoint x="470.99338271800707" y="397.5544666653452" as="sourcePoint" />
            <mxPoint x="496.02943725153864" y="383.9705627484616" as="targetPoint" />
          </mxGeometry>
        </mxCell>
        <mxCell id="FFnlqfLC8yHRUuaNmc0S-51" value="" style="endArrow=none;html=1;fontSize=11;fontColor=#FFFFFF;strokeColor=#FFFFFF;entryX=0;entryY=0.5;entryDx=0;entryDy=0;exitX=1;exitY=0.5;exitDx=0;exitDy=0;" edge="1" parent="1" source="FFnlqfLC8yHRUuaNmc0S-46" target="FFnlqfLC8yHRUuaNmc0S-16">
          <mxGeometry width="50" height="50" relative="1" as="geometry">
            <mxPoint x="480.99338271800707" y="407.5544666653452" as="sourcePoint" />
            <mxPoint x="506.02943725153864" y="393.9705627484616" as="targetPoint" />
          </mxGeometry>
        </mxCell>
        <mxCell id="FFnlqfLC8yHRUuaNmc0S-100" style="edgeStyle=orthogonalEdgeStyle;rounded=0;orthogonalLoop=1;jettySize=auto;html=1;entryX=1;entryY=0.5;entryDx=0;entryDy=0;fontSize=11;fontColor=#FFFFFF;strokeColor=#FFFFFF;" edge="1" parent="1" source="FFnlqfLC8yHRUuaNmc0S-54" target="FFnlqfLC8yHRUuaNmc0S-55">
          <mxGeometry relative="1" as="geometry" />
        </mxCell>
        <mxCell id="FFnlqfLC8yHRUuaNmc0S-101" style="edgeStyle=orthogonalEdgeStyle;rounded=0;orthogonalLoop=1;jettySize=auto;html=1;entryX=0;entryY=0.5;entryDx=0;entryDy=0;fontSize=11;fontColor=#FFFFFF;strokeColor=#FFFFFF;" edge="1" parent="1" source="FFnlqfLC8yHRUuaNmc0S-54" target="FFnlqfLC8yHRUuaNmc0S-57">
          <mxGeometry relative="1" as="geometry" />
        </mxCell>
        <mxCell id="FFnlqfLC8yHRUuaNmc0S-102" style="edgeStyle=orthogonalEdgeStyle;rounded=0;orthogonalLoop=1;jettySize=auto;html=1;entryX=0.5;entryY=0;entryDx=0;entryDy=0;fontSize=11;fontColor=#FFFFFF;strokeColor=#FFFFFF;" edge="1" parent="1" source="FFnlqfLC8yHRUuaNmc0S-54" target="FFnlqfLC8yHRUuaNmc0S-56">
          <mxGeometry relative="1" as="geometry" />
        </mxCell>
        <mxCell id="FFnlqfLC8yHRUuaNmc0S-54" value="&lt;font style=&quot;font-size: 14px&quot;&gt;Control Systems&lt;br&gt;&lt;/font&gt;" style="whiteSpace=wrap;html=1;aspect=fixed;fontColor=#ffffff;fillColor=#4D4D4D;strokeColor=#999999;" vertex="1" parent="1">
          <mxGeometry x="755.5" y="1008" width="90" height="90" as="geometry" />
        </mxCell>
        <mxCell id="FFnlqfLC8yHRUuaNmc0S-55" value="Git" style="ellipse;whiteSpace=wrap;html=1;fontColor=#FFFFFF;strokeColor=#999999;fillColor=#4D4D4D;" vertex="1" parent="1">
          <mxGeometry x="616" y="1030.5" width="82" height="45" as="geometry" />
        </mxCell>
        <mxCell id="FFnlqfLC8yHRUuaNmc0S-56" value="SVN" style="ellipse;whiteSpace=wrap;html=1;fontColor=#FFFFFF;strokeColor=#999999;fillColor=#4D4D4D;" vertex="1" parent="1">
          <mxGeometry x="759" y="1143" width="82" height="45" as="geometry" />
        </mxCell>
        <mxCell id="FFnlqfLC8yHRUuaNmc0S-57" value="?" style="ellipse;whiteSpace=wrap;html=1;fontColor=#FFFFFF;strokeColor=#999999;fillColor=#4D4D4D;" vertex="1" parent="1">
          <mxGeometry x="901" y="1030.5" width="82" height="45" as="geometry" />
        </mxCell>
        <mxCell id="FFnlqfLC8yHRUuaNmc0S-58" value="GitHub" style="ellipse;whiteSpace=wrap;html=1;aspect=fixed;labelBackgroundColor=none;fontSize=11;fontColor=#FFFFFF;strokeColor=#999999;fillColor=#4D4D4D;" vertex="1" parent="1">
          <mxGeometry x="568" y="974" width="48" height="48" as="geometry" />
        </mxCell>
        <mxCell id="FFnlqfLC8yHRUuaNmc0S-59" value="GitLab" style="ellipse;whiteSpace=wrap;html=1;aspect=fixed;labelBackgroundColor=none;fontSize=11;fontColor=#FFFFFF;strokeColor=#999999;fillColor=#4D4D4D;" vertex="1" parent="1">
          <mxGeometry x="538" y="1029" width="48" height="48" as="geometry" />
        </mxCell>
        <mxCell id="FFnlqfLC8yHRUuaNmc0S-60" value="Bitbucket" style="ellipse;whiteSpace=wrap;html=1;aspect=fixed;labelBackgroundColor=none;fontSize=11;fontColor=#FFFFFF;strokeColor=#999999;fillColor=#4D4D4D;" vertex="1" parent="1">
          <mxGeometry x="568" y="1084" width="48" height="48" as="geometry" />
        </mxCell>
        <mxCell id="FFnlqfLC8yHRUuaNmc0S-61" value="Azure DevOps" style="ellipse;whiteSpace=wrap;html=1;aspect=fixed;labelBackgroundColor=none;fontSize=11;fontColor=#FFFFFF;strokeColor=#999999;fillColor=#4D4D4D;direction=south;" vertex="1" parent="1">
          <mxGeometry x="633" y="1095" width="48" height="48" as="geometry" />
        </mxCell>
        <mxCell id="FFnlqfLC8yHRUuaNmc0S-67" value="XML" style="ellipse;whiteSpace=wrap;html=1;fontColor=#FFFFFF;strokeColor=#999999;fillColor=#4D4D4D;" vertex="1" parent="1">
          <mxGeometry x="710" y="419" width="82" height="45" as="geometry" />
        </mxCell>
        <mxCell id="FFnlqfLC8yHRUuaNmc0S-68" value="" style="endArrow=none;html=1;fontSize=11;fontColor=#FFFFFF;strokeColor=#FFFFFF;entryX=0.5;entryY=1;entryDx=0;entryDy=0;exitX=0.25;exitY=0;exitDx=0;exitDy=0;" edge="1" parent="1" source="FFnlqfLC8yHRUuaNmc0S-4" target="FFnlqfLC8yHRUuaNmc0S-67">
          <mxGeometry width="50" height="50" relative="1" as="geometry">
            <mxPoint x="849" y="575" as="sourcePoint" />
            <mxPoint x="899" y="525" as="targetPoint" />
          </mxGeometry>
        </mxCell>
        <mxCell id="FFnlqfLC8yHRUuaNmc0S-69" value="" style="endArrow=classic;html=1;fontSize=11;fontColor=#FFFFFF;strokeColor=#FFFFFF;entryX=0.5;entryY=0;entryDx=0;entryDy=0;exitX=0.5;exitY=1;exitDx=0;exitDy=0;" edge="1" parent="1" source="FFnlqfLC8yHRUuaNmc0S-2" target="FFnlqfLC8yHRUuaNmc0S-54">
          <mxGeometry width="50" height="50" relative="1" as="geometry">
            <mxPoint x="853" y="918" as="sourcePoint" />
            <mxPoint x="903" y="868" as="targetPoint" />
          </mxGeometry>
        </mxCell>
        <mxCell id="FFnlqfLC8yHRUuaNmc0S-70" value="" style="endArrow=none;html=1;fontSize=11;fontColor=#FFFFFF;strokeColor=#FFFFFF;exitX=0;exitY=0.5;exitDx=0;exitDy=0;entryX=1;entryY=0.5;entryDx=0;entryDy=0;" edge="1" parent="1" source="FFnlqfLC8yHRUuaNmc0S-74" target="FFnlqfLC8yHRUuaNmc0S-77">
          <mxGeometry width="50" height="50" relative="1" as="geometry">
            <mxPoint x="853" y="683" as="sourcePoint" />
            <mxPoint x="803" y="732.9999999999998" as="targetPoint" />
          </mxGeometry>
        </mxCell>
        <mxCell id="FFnlqfLC8yHRUuaNmc0S-74" value="Node.js" style="ellipse;whiteSpace=wrap;html=1;fontColor=#FFFFFF;strokeColor=#999999;fillColor=#4D4D4D;" vertex="1" parent="1">
          <mxGeometry x="259" y="515.5" width="82" height="45" as="geometry" />
        </mxCell>
        <mxCell id="FFnlqfLC8yHRUuaNmc0S-75" value="Express" style="ellipse;whiteSpace=wrap;html=1;aspect=fixed;labelBackgroundColor=none;fontSize=11;fontColor=#FFFFFF;strokeColor=#999999;fillColor=#4D4D4D;" vertex="1" parent="1">
          <mxGeometry x="276" y="445" width="48" height="48" as="geometry" />
        </mxCell>
        <mxCell id="FFnlqfLC8yHRUuaNmc0S-76" value="hapi" style="ellipse;whiteSpace=wrap;html=1;aspect=fixed;labelBackgroundColor=none;fontSize=11;fontColor=#FFFFFF;strokeColor=#999999;fillColor=#4D4D4D;" vertex="1" parent="1">
          <mxGeometry x="211" y="459" width="48" height="48" as="geometry" />
        </mxCell>
        <mxCell id="FFnlqfLC8yHRUuaNmc0S-77" value="fastify" style="ellipse;whiteSpace=wrap;html=1;aspect=fixed;labelBackgroundColor=none;fontSize=11;fontColor=#FFFFFF;strokeColor=#999999;fillColor=#4D4D4D;" vertex="1" parent="1">
          <mxGeometry x="181" y="514" width="48" height="48" as="geometry" />
        </mxCell>
        <mxCell id="FFnlqfLC8yHRUuaNmc0S-78" value="koa.js" style="ellipse;whiteSpace=wrap;html=1;aspect=fixed;labelBackgroundColor=none;fontSize=11;fontColor=#FFFFFF;strokeColor=#999999;fillColor=#4D4D4D;" vertex="1" parent="1">
          <mxGeometry x="202" y="570" width="48" height="48" as="geometry" />
        </mxCell>
        <mxCell id="FFnlqfLC8yHRUuaNmc0S-80" value="" style="endArrow=none;html=1;fontSize=11;fontColor=#FFFFFF;strokeColor=#FFFFFF;exitX=1;exitY=0;exitDx=0;exitDy=0;entryX=0;entryY=1;entryDx=0;entryDy=0;" edge="1" parent="1" source="FFnlqfLC8yHRUuaNmc0S-78" target="FFnlqfLC8yHRUuaNmc0S-74">
          <mxGeometry width="50" height="50" relative="1" as="geometry">
            <mxPoint x="853" y="683" as="sourcePoint" />
            <mxPoint x="145" y="459" as="targetPoint" />
          </mxGeometry>
        </mxCell>
        <mxCell id="FFnlqfLC8yHRUuaNmc0S-81" value="" style="endArrow=none;html=1;fontSize=11;fontColor=#FFFFFF;strokeColor=#FFFFFF;exitX=0;exitY=0;exitDx=0;exitDy=0;entryX=1;entryY=1;entryDx=0;entryDy=0;" edge="1" parent="1" source="FFnlqfLC8yHRUuaNmc0S-74" target="FFnlqfLC8yHRUuaNmc0S-76">
          <mxGeometry width="50" height="50" relative="1" as="geometry">
            <mxPoint x="269.0000000000098" y="547.9999999999998" as="sourcePoint" />
            <mxPoint x="245.97056274847637" y="556.0294372515243" as="targetPoint" />
          </mxGeometry>
        </mxCell>
        <mxCell id="FFnlqfLC8yHRUuaNmc0S-82" value="" style="endArrow=none;html=1;fontSize=11;fontColor=#FFFFFF;strokeColor=#FFFFFF;exitX=0.5;exitY=0;exitDx=0;exitDy=0;entryX=0.5;entryY=1;entryDx=0;entryDy=0;" edge="1" parent="1" source="FFnlqfLC8yHRUuaNmc0S-74" target="FFnlqfLC8yHRUuaNmc0S-75">
          <mxGeometry width="50" height="50" relative="1" as="geometry">
            <mxPoint x="281.2726780731757" y="531.9464965703039" as="sourcePoint" />
            <mxPoint x="245.97056274847637" y="522.9705627484761" as="targetPoint" />
          </mxGeometry>
        </mxCell>
        <mxCell id="FFnlqfLC8yHRUuaNmc0S-84" value="Ghost" style="ellipse;whiteSpace=wrap;html=1;aspect=fixed;labelBackgroundColor=none;fontSize=11;fontColor=#FFFFFF;strokeColor=#999999;fillColor=#4D4D4D;" vertex="1" parent="1">
          <mxGeometry x="276" y="583" width="48" height="48" as="geometry" />
        </mxCell>
        <mxCell id="FFnlqfLC8yHRUuaNmc0S-85" value="Strapi" style="ellipse;whiteSpace=wrap;html=1;aspect=fixed;labelBackgroundColor=none;fontSize=11;fontColor=#FFFFFF;strokeColor=#999999;fillColor=#4D4D4D;" vertex="1" parent="1">
          <mxGeometry x="346" y="459" width="48" height="48" as="geometry" />
        </mxCell>
        <mxCell id="FFnlqfLC8yHRUuaNmc0S-86" value="" style="endArrow=none;html=1;fontSize=11;fontColor=#FFFFFF;strokeColor=#FFFFFF;exitX=0.5;exitY=0;exitDx=0;exitDy=0;entryX=0.5;entryY=1;entryDx=0;entryDy=0;" edge="1" parent="1" source="FFnlqfLC8yHRUuaNmc0S-84" target="FFnlqfLC8yHRUuaNmc0S-74">
          <mxGeometry width="50" height="50" relative="1" as="geometry">
            <mxPoint x="244.99999999998818" y="577" as="sourcePoint" />
            <mxPoint x="281.2726780731757" y="564.0535034296959" as="targetPoint" />
          </mxGeometry>
        </mxCell>
        <mxCell id="FFnlqfLC8yHRUuaNmc0S-87" value="" style="endArrow=none;html=1;fontSize=11;fontColor=#FFFFFF;strokeColor=#FFFFFF;exitX=0;exitY=1;exitDx=0;exitDy=0;entryX=1;entryY=0;entryDx=0;entryDy=0;" edge="1" parent="1" source="FFnlqfLC8yHRUuaNmc0S-85" target="FFnlqfLC8yHRUuaNmc0S-74">
          <mxGeometry width="50" height="50" relative="1" as="geometry">
            <mxPoint x="286.0000000000002" y="587.9999999999998" as="sourcePoint" />
            <mxPoint x="310" y="570.4999999999998" as="targetPoint" />
          </mxGeometry>
        </mxCell>
        <mxCell id="FFnlqfLC8yHRUuaNmc0S-88" value="Ember.js" style="ellipse;whiteSpace=wrap;html=1;aspect=fixed;labelBackgroundColor=none;fontSize=11;fontColor=#FFFFFF;strokeColor=#999999;fillColor=#4D4D4D;" vertex="1" parent="1">
          <mxGeometry x="616" y="355.5" width="48" height="48" as="geometry" />
        </mxCell>
        <mxCell id="FFnlqfLC8yHRUuaNmc0S-89" value="" style="endArrow=none;html=1;fontSize=11;fontColor=#FFFFFF;strokeColor=#FFFFFF;entryX=0;entryY=0.5;entryDx=0;entryDy=0;exitX=1;exitY=0.5;exitDx=0;exitDy=0;" edge="1" parent="1" source="FFnlqfLC8yHRUuaNmc0S-16" target="FFnlqfLC8yHRUuaNmc0S-88">
          <mxGeometry width="50" height="50" relative="1" as="geometry">
            <mxPoint x="472.0000000000191" y="389.5" as="sourcePoint" />
            <mxPoint x="500.000000000005" y="389.5" as="targetPoint" />
          </mxGeometry>
        </mxCell>
        <mxCell id="FFnlqfLC8yHRUuaNmc0S-91" value="Libraries" style="ellipse;whiteSpace=wrap;html=1;fontColor=#FFFFFF;strokeColor=#999999;fillColor=#4D4D4D;" vertex="1" parent="1">
          <mxGeometry x="1110" y="596" width="96" height="65" as="geometry" />
        </mxCell>
        <mxCell id="FFnlqfLC8yHRUuaNmc0S-92" value="Bootstrap" style="ellipse;whiteSpace=wrap;html=1;aspect=fixed;labelBackgroundColor=none;fontSize=11;fontColor=#FFFFFF;strokeColor=#999999;fillColor=#4D4D4D;" vertex="1" parent="1">
          <mxGeometry x="1057" y="652.5" width="48" height="48" as="geometry" />
        </mxCell>
        <mxCell id="FFnlqfLC8yHRUuaNmc0S-93" value="Materialize" style="ellipse;whiteSpace=wrap;html=1;aspect=fixed;labelBackgroundColor=none;fontSize=11;fontColor=#FFFFFF;strokeColor=#999999;fillColor=#4D4D4D;" vertex="1" parent="1">
          <mxGeometry x="1134" y="680" width="48" height="48" as="geometry" />
        </mxCell>
        <mxCell id="FFnlqfLC8yHRUuaNmc0S-94" value="Foundation" style="ellipse;whiteSpace=wrap;html=1;aspect=fixed;labelBackgroundColor=none;fontSize=11;fontColor=#FFFFFF;strokeColor=#999999;fillColor=#4D4D4D;" vertex="1" parent="1">
          <mxGeometry x="1206" y="658" width="48" height="48" as="geometry" />
        </mxCell>
        <mxCell id="FFnlqfLC8yHRUuaNmc0S-95" value="TailwindCSS" style="ellipse;whiteSpace=wrap;html=1;aspect=fixed;labelBackgroundColor=none;fontSize=11;fontColor=#FFFFFF;strokeColor=#999999;fillColor=#4D4D4D;" vertex="1" parent="1">
          <mxGeometry x="1237" y="604.5" width="48" height="48" as="geometry" />
        </mxCell>
        <mxCell id="FFnlqfLC8yHRUuaNmc0S-96" value="" style="endArrow=none;html=1;fontSize=11;fontColor=#FFFFFF;strokeColor=#FFFFFF;entryX=0;entryY=1;entryDx=0;entryDy=0;exitX=1;exitY=0;exitDx=0;exitDy=0;" edge="1" parent="1" source="FFnlqfLC8yHRUuaNmc0S-92" target="FFnlqfLC8yHRUuaNmc0S-91">
          <mxGeometry width="50" height="50" relative="1" as="geometry">
            <mxPoint x="853" y="673" as="sourcePoint" />
            <mxPoint x="903" y="623" as="targetPoint" />
          </mxGeometry>
        </mxCell>
        <mxCell id="FFnlqfLC8yHRUuaNmc0S-97" value="" style="endArrow=none;html=1;fontSize=11;fontColor=#FFFFFF;strokeColor=#FFFFFF;entryX=0.5;entryY=1;entryDx=0;entryDy=0;exitX=0.5;exitY=0;exitDx=0;exitDy=0;" edge="1" parent="1" source="FFnlqfLC8yHRUuaNmc0S-93" target="FFnlqfLC8yHRUuaNmc0S-91">
          <mxGeometry width="50" height="50" relative="1" as="geometry">
            <mxPoint x="853" y="673" as="sourcePoint" />
            <mxPoint x="903" y="623" as="targetPoint" />
          </mxGeometry>
        </mxCell>
        <mxCell id="FFnlqfLC8yHRUuaNmc0S-98" value="" style="endArrow=none;html=1;fontSize=11;fontColor=#FFFFFF;strokeColor=#FFFFFF;entryX=1;entryY=1;entryDx=0;entryDy=0;exitX=0;exitY=0;exitDx=0;exitDy=0;" edge="1" parent="1" source="FFnlqfLC8yHRUuaNmc0S-94" target="FFnlqfLC8yHRUuaNmc0S-91">
          <mxGeometry width="50" height="50" relative="1" as="geometry">
            <mxPoint x="853" y="673" as="sourcePoint" />
            <mxPoint x="903" y="623" as="targetPoint" />
          </mxGeometry>
        </mxCell>
        <mxCell id="FFnlqfLC8yHRUuaNmc0S-99" value="" style="endArrow=none;html=1;fontSize=11;fontColor=#FFFFFF;strokeColor=#FFFFFF;entryX=1;entryY=0.5;entryDx=0;entryDy=0;exitX=0;exitY=0.5;exitDx=0;exitDy=0;" edge="1" parent="1" source="FFnlqfLC8yHRUuaNmc0S-95" target="FFnlqfLC8yHRUuaNmc0S-91">
          <mxGeometry width="50" height="50" relative="1" as="geometry">
            <mxPoint x="853" y="673" as="sourcePoint" />
            <mxPoint x="903" y="623" as="targetPoint" />
          </mxGeometry>
        </mxCell>
        <mxCell id="FFnlqfLC8yHRUuaNmc0S-103" value="" style="endArrow=none;html=1;fontSize=11;fontColor=#FFFFFF;strokeColor=#FFFFFF;exitX=1;exitY=1;exitDx=0;exitDy=0;entryX=0;entryY=0;entryDx=0;entryDy=0;" edge="1" parent="1" source="FFnlqfLC8yHRUuaNmc0S-58" target="FFnlqfLC8yHRUuaNmc0S-55">
          <mxGeometry width="50" height="50" relative="1" as="geometry">
            <mxPoint x="853" y="918" as="sourcePoint" />
            <mxPoint x="903" y="868" as="targetPoint" />
          </mxGeometry>
        </mxCell>
        <mxCell id="FFnlqfLC8yHRUuaNmc0S-104" value="" style="endArrow=none;html=1;fontSize=11;fontColor=#FFFFFF;strokeColor=#FFFFFF;exitX=1;exitY=0.5;exitDx=0;exitDy=0;entryX=0;entryY=0.5;entryDx=0;entryDy=0;" edge="1" parent="1" source="FFnlqfLC8yHRUuaNmc0S-59" target="FFnlqfLC8yHRUuaNmc0S-55">
          <mxGeometry width="50" height="50" relative="1" as="geometry">
            <mxPoint x="618.9705627484614" y="1024.9705627484616" as="sourcePoint" />
            <mxPoint x="638.272678073186" y="1046.9464965703096" as="targetPoint" />
          </mxGeometry>
        </mxCell>
        <mxCell id="FFnlqfLC8yHRUuaNmc0S-105" value="" style="endArrow=none;html=1;fontSize=11;fontColor=#FFFFFF;strokeColor=#FFFFFF;exitX=1;exitY=0;exitDx=0;exitDy=0;entryX=0;entryY=1;entryDx=0;entryDy=0;" edge="1" parent="1" source="FFnlqfLC8yHRUuaNmc0S-60" target="FFnlqfLC8yHRUuaNmc0S-55">
          <mxGeometry width="50" height="50" relative="1" as="geometry">
            <mxPoint x="596.0000000000191" y="1063.0000000000002" as="sourcePoint" />
            <mxPoint x="626.0000000000018" y="1063" as="targetPoint" />
          </mxGeometry>
        </mxCell>
        <mxCell id="FFnlqfLC8yHRUuaNmc0S-106" value="" style="endArrow=none;html=1;fontSize=11;fontColor=#FFFFFF;strokeColor=#FFFFFF;exitX=0;exitY=0.5;exitDx=0;exitDy=0;entryX=0.5;entryY=1;entryDx=0;entryDy=0;" edge="1" parent="1" source="FFnlqfLC8yHRUuaNmc0S-61" target="FFnlqfLC8yHRUuaNmc0S-55">
          <mxGeometry width="50" height="50" relative="1" as="geometry">
            <mxPoint x="606.0000000000191" y="1073.0000000000002" as="sourcePoint" />
            <mxPoint x="636.0000000000018" y="1073" as="targetPoint" />
          </mxGeometry>
        </mxCell>
        <mxCell id="FFnlqfLC8yHRUuaNmc0S-107" value="TortoiseSVN" style="ellipse;whiteSpace=wrap;html=1;aspect=fixed;labelBackgroundColor=none;fontSize=11;fontColor=#FFFFFF;strokeColor=#999999;fillColor=#4D4D4D;" vertex="1" parent="1">
          <mxGeometry x="776.5" y="1207" width="48" height="48" as="geometry" />
        </mxCell>
        <mxCell id="FFnlqfLC8yHRUuaNmc0S-108" value="SmartSVN" style="ellipse;whiteSpace=wrap;html=1;aspect=fixed;labelBackgroundColor=none;fontSize=11;fontColor=#FFFFFF;strokeColor=#999999;fillColor=#4D4D4D;" vertex="1" parent="1">
          <mxGeometry x="710" y="1188" width="48" height="48" as="geometry" />
        </mxCell>
        <mxCell id="FFnlqfLC8yHRUuaNmc0S-109" value="" style="endArrow=none;html=1;fontSize=11;fontColor=#FFFFFF;strokeColor=#FFFFFF;exitX=1;exitY=0;exitDx=0;exitDy=0;entryX=0;entryY=1;entryDx=0;entryDy=0;" edge="1" parent="1" source="FFnlqfLC8yHRUuaNmc0S-108" target="FFnlqfLC8yHRUuaNmc0S-56">
          <mxGeometry width="50" height="50" relative="1" as="geometry">
            <mxPoint x="853" y="1036" as="sourcePoint" />
            <mxPoint x="903" y="986" as="targetPoint" />
          </mxGeometry>
        </mxCell>
        <mxCell id="FFnlqfLC8yHRUuaNmc0S-110" value="" style="endArrow=none;html=1;fontSize=11;fontColor=#FFFFFF;strokeColor=#FFFFFF;exitX=0.5;exitY=0;exitDx=0;exitDy=0;entryX=0.5;entryY=1;entryDx=0;entryDy=0;" edge="1" parent="1" source="FFnlqfLC8yHRUuaNmc0S-107" target="FFnlqfLC8yHRUuaNmc0S-56">
          <mxGeometry width="50" height="50" relative="1" as="geometry">
            <mxPoint x="752.97056274849" y="1195.0294372515095" as="sourcePoint" />
            <mxPoint x="768.9999999999945" y="1175.5" as="targetPoint" />
          </mxGeometry>
        </mxCell>
        <mxCell id="FFnlqfLC8yHRUuaNmc0S-113" value="&lt;font style=&quot;font-size: 14px&quot;&gt;Python&lt;br&gt;&lt;/font&gt;" style="whiteSpace=wrap;html=1;aspect=fixed;fontColor=#ffffff;fillColor=#4D4D4D;strokeColor=#999999;" vertex="1" parent="1">
          <mxGeometry x="493" y="755.5" width="90" height="90" as="geometry" />
        </mxCell>
      </root>
    </mxGraphModel>
  </diagram>
</mxfile>
